<svg xmlns="http://www.w3.org/2000/svg" width="112" height="38" viewBox="0 0 112 38"><defs><style>.a{fill:#0070c0;}</style></defs><title>spacyr_logo_small</title><path class="a" d="M10.73,21a7.67,7.67,0,0,1-2.68-.39A4.8,4.8,0,0,1,5.87,19,4.52,4.52,0,0,1,5,16.15c0-.45,0-.91,0-1.39s.07-.89.12-1.26a5.78,5.78,0,0,1,1.38-3.28A5.21,5.21,0,0,1,9.47,8.6a8,8,0,0,1,1.74-.18l2.37,0H19l-.36,3.91H12.28a7.73,7.73,0,0,0-1,.08A2.1,2.1,0,0,0,9.86,13a2.5,2.5,0,0,0-.59,1.49,2.13,2.13,0,0,0,0,.39v.4a1.56,1.56,0,0,0,1.11,1.62,3.67,3.67,0,0,0,.69.12c.3,0,.6,0,.89,0h1.94a5.69,5.69,0,0,1,3.83,1.24,4.44,4.44,0,0,1,1.47,3.58,12.88,12.88,0,0,1-.08,1.37c-.06.46-.11.91-.16,1.36A6.31,6.31,0,0,1,17.52,28a5.09,5.09,0,0,1-2.91,1.66,7.88,7.88,0,0,1-1.72.18l-2.35,0H4.29l.36-3.91H11.8a7.73,7.73,0,0,0,1-.08,2.12,2.12,0,0,0,2-1.9,4.58,4.58,0,0,0,.1-.63c0-.22,0-.39,0-.52a1.61,1.61,0,0,0-.58-1.4A2.51,2.51,0,0,0,12.83,21Z"/><path class="a" d="M37.49,24.65A5.64,5.64,0,0,1,36.13,28a5.23,5.23,0,0,1-3,1.66,7.88,7.88,0,0,1-1.72.18l-2.35,0H25.28l-.56,6.72H20.53l2-23a5.61,5.61,0,0,1,1.36-3.32A5.18,5.18,0,0,1,26.82,8.6a8,8,0,0,1,1.74-.18l2.37,0c.92,0,1.75,0,2.49,0a5.8,5.8,0,0,1,1.9.35,5.09,5.09,0,0,1,2.19,1.55,4.37,4.37,0,0,1,.89,2.92c0,.45,0,.86,0,1.23s-.06.78-.12,1.22Zm-3.4-9.25c0-.24,0-.45.06-.64a5.53,5.53,0,0,0,0-.59A1.59,1.59,0,0,0,33,12.47a3.87,3.87,0,0,0-.85-.14l-1.37,0H29.63a7.73,7.73,0,0,0-1,.08,2.1,2.1,0,0,0-1.39.65,2.5,2.5,0,0,0-.59,1.49l-.71,8.38a5.25,5.25,0,0,0-.06.61c0,.23,0,.42,0,.58a1.56,1.56,0,0,0,1.11,1.66,4.69,4.69,0,0,0,1.1.14l1.31,0h1a7.72,7.72,0,0,0,1-.08,2.14,2.14,0,0,0,1.39-.62,2.18,2.18,0,0,0,.59-1.36Z"/><path class="a" d="M49.33,8.4c.93,0,1.76,0,2.5,0a5.74,5.74,0,0,1,1.89.35,5.18,5.18,0,0,1,2.2,1.55,4.43,4.43,0,0,1,.89,2.92c0,.45,0,.86,0,1.23s-.07.78-.12,1.22l-.79,8.94A5.65,5.65,0,0,1,54.49,28a5.17,5.17,0,0,1-2.94,1.66,7.88,7.88,0,0,1-1.72.18l-2.35,0c-.93,0-1.76,0-2.51,0a5.81,5.81,0,0,1-1.92-.36,5.07,5.07,0,0,1-2.2-1.54A4.43,4.43,0,0,1,40,25c0-.72,0-1.38.08-2s.11-1.23.16-1.84a5.54,5.54,0,0,1,1.39-3.32,5.29,5.29,0,0,1,3-1.66A8.52,8.52,0,0,1,46,16c.62,0,1.67,0,3.15,0h2.13a1.35,1.35,0,0,0,.81-.26,1.2,1.2,0,0,0,.46-.89c0-.18,0-.34.06-.49s0-.28,0-.41a1.37,1.37,0,0,0-1.11-1.43,4.3,4.3,0,0,0-1-.14l-1.2,0H43.52l.36-3.91ZM52.1,19.87H47.34a7.82,7.82,0,0,0-1.05.07,2,2,0,0,0-1.38.68,2.54,2.54,0,0,0-.6,1.5,17.5,17.5,0,0,0-.12,1.94,1.6,1.6,0,0,0,1.19,1.7,4.19,4.19,0,0,0,1,.14l1.34,0h1.13a7.28,7.28,0,0,0,.93-.08,2.12,2.12,0,0,0,1.38-.62,2.19,2.19,0,0,0,.6-1.36Z"/><path class="a" d="M71.93,25.92l-.35,3.91H66.67c-.92,0-1.76,0-2.51,0a5.86,5.86,0,0,1-1.92-.36,5,5,0,0,1-2.19-1.54A4.43,4.43,0,0,1,59.16,25c0-.45,0-.86,0-1.23s.07-.78.12-1.23l.79-8.93a5.68,5.68,0,0,1,1.36-3.32,5.18,5.18,0,0,1,3-1.66,8,8,0,0,1,1.74-.18l2.37,0h4.86L73,12.31H67.23a7.73,7.73,0,0,0-1,.08,2.1,2.1,0,0,0-1.39.65,2.5,2.5,0,0,0-.59,1.49l-.75,8.38a5.25,5.25,0,0,0-.06.61c0,.23,0,.42,0,.58a1.56,1.56,0,0,0,1.11,1.66,4.69,4.69,0,0,0,1.1.14l1.31,0Z"/><path class="a" d="M87.62,8.4h4.19l-2,23a5.62,5.62,0,0,1-1.37,3.32,5.15,5.15,0,0,1-2.94,1.66,7.88,7.88,0,0,1-1.72.18l-2.35,0H76.08l.35-3.91h6.11a8.72,8.72,0,0,0,1.17-.08,2,2,0,0,0,2-2l.08-.75H82c-.92,0-1.76,0-2.51,0a5.86,5.86,0,0,1-1.92-.36,5,5,0,0,1-2.19-1.54A4.37,4.37,0,0,1,74.5,25c0-.45,0-.86,0-1.23s.06-.78.11-1.23L75.88,8.4h4.23l-1.3,14.51a5.11,5.11,0,0,0-.06.59c0,.21,0,.4,0,.56a1.59,1.59,0,0,0,1.18,1.7,3.87,3.87,0,0,0,.85.14l1.49,0h1.12a7.28,7.28,0,0,0,.93-.08,2.08,2.08,0,0,0,2-2.1Z"/><path class="a" d="M95.24,13.58a5.61,5.61,0,0,1,1.36-3.32,5.18,5.18,0,0,1,3-1.66,8,8,0,0,1,1.74-.18l2.37,0h3.64l-.36,3.91h-4.58a7.73,7.73,0,0,0-1,.08,2.1,2.1,0,0,0-1.39.65,2.5,2.5,0,0,0-.59,1.49L98,29.83h-4.2Z"/></svg>